/* XPM */
static char * rpg16_xpm[] = {
"16 16 127 2",
"  	c None",
". 	c #F2F3F3",
"+ 	c #EDEEEF",
"@ 	c #E1E2E4",
"# 	c #AFB0B2",
"$ 	c #6F7072",
"% 	c #B1B1B3",
"& 	c #E1E3E4",
"* 	c #EEEFF0",
"= 	c #D0D0D1",
"- 	c #9194A0",
"; 	c #8E939C",
"> 	c #D0CFD0",
", 	c #E2E3E5",
"' 	c #7A8D97",
") 	c #4D91A2",
"! 	c #58AF9B",
"~ 	c #4AB483",
"{ 	c #3BAD79",
"] 	c #38AC77",
"^ 	c #3BAE79",
"/ 	c #47A78F",
"( 	c #5396B1",
"_ 	c #4A7DB7",
": 	c #707E98",
"< 	c #2A9771",
"[ 	c #41AE7F",
"} 	c #159963",
"| 	c #179B64",
"1 	c #189B65",
"2 	c #179B65",
"3 	c #169C62",
"4 	c #3BA088",
"5 	c #174DAC",
"6 	c #4EA07F",
"7 	c #179762",
"8 	c #189D66",
"9 	c #157E54",
"0 	c #189964",
"a 	c #189A64",
"b 	c #179565",
"c 	c #1F4DA9",
"d 	c #82ACA1",
"e 	c #17925F",
"f 	c #17865A",
"g 	c #158355",
"h 	c #141C27",
"i 	c #165C46",
"j 	c #168A5B",
"k 	c #189C66",
"l 	c #148B68",
"m 	c #7387B5",
"n 	c #B5B6C0",
"o 	c #9EA7AB",
"p 	c #15895A",
"q 	c #189C65",
"r 	c #18A068",
"s 	c #16684B",
"t 	c #18463F",
"u 	c #18815A",
"v 	c #13513E",
"w 	c #107867",
"x 	c #B8BAC3",
"y 	c #C4C1CE",
"z 	c #097A4C",
"A 	c #166D4E",
"B 	c #17242F",
"C 	c #14272C",
"D 	c #171E2C",
"E 	c #16222D",
"F 	c #153835",
"G 	c #189E66",
"H 	c #189B63",
"I 	c #065470",
"J 	c #C4C4CB",
"K 	c #B5B7C0",
"L 	c #50957A",
"M 	c #168F5D",
"N 	c #15463C",
"O 	c #171F2D",
"P 	c #16252F",
"Q 	c #18A167",
"R 	c #168E5F",
"S 	c #375AA3",
"T 	c #B5B7C1",
"U 	c #A1A2A9",
"V 	c #D2D0D9",
"W 	c #117D50",
"X 	c #183939",
"Y 	c #17212E",
"Z 	c #171E2D",
"` 	c #173839",
" .	c #187E58",
"..	c #154039",
"+.	c #0C665A",
"@.	c #D8D4D7",
"#.	c #A5A6AB",
"$.	c #D3D4DA",
"%.	c #157450",
"&.	c #171428",
"*.	c #163936",
"=.	c #16272F",
"-.	c #157050",
";.	c #D2D4D9",
">.	c #B4B5B8",
",.	c #E9E7EB",
"'.	c #19764F",
").	c #177D56",
"!.	c #165845",
"~.	c #172F34",
"{.	c #178C5B",
"].	c #186162",
"^.	c #EDEBEC",
"/.	c #BABBBF",
"(.	c #6D6E71",
"_.	c #AEB3B3",
":.	c #0F7048",
"<.	c #164E41",
"[.	c #17192A",
"}.	c #174B40",
"|.	c #11694F",
"1.	c #B2AFBB",
"2.	c #6B6D6F",
"3.	c #117048",
"4.	c #17684C",
"5.	c #0F6C4A",
"6.	c #106442",
"              .                 ",
"        + @ # $ % & *           ",
"    @ = -           ; > ,       ",
"    ' ) ! ~ { ] ^ / ( _ :       ",
"  < [ } | 1 1 1 1 1 2 3 4 5     ",
"  6 7 1 8 9 1 0 0 1 a 1 b c     ",
"  d e 1 1 f g h i j k 1 l m     ",
"n o p q 1 r s t u v 8 1 w   x   ",
"  y z q A B C D E F G H I J     ",
"  K L M N O O O B P Q R S T     ",
"  U V W X O Y Z `  ...+.@.#.    ",
"    $.  %.&.*.Z =.r -.  ;.      ",
"    >.,.'.).!.O ~.{.].^./.      ",
"      (._.:.<.[.}.|.1.2.        ",
"            3.4.5.              ",
"              6.                "};
