/* XPM */
static char * rpg32_xpm[] = {
"32 32 374 2",
"  	c None",
". 	c #F2F3F3",
"+ 	c #EBEAEB",
"@ 	c #F5F6F6",
"# 	c #F5F7F8",
"$ 	c #E8E9E9",
"% 	c #F7F8F8",
"& 	c #F6F7F7",
"* 	c #EAEBEA",
"= 	c #ECEDED",
"- 	c #F5F7F7",
"; 	c #ECEDEE",
"> 	c #DCDDDE",
", 	c #AEAFB0",
"' 	c #949597",
") 	c #ACACAE",
"! 	c #DCDCDE",
"~ 	c #EBECEE",
"{ 	c #F4F6F7",
"] 	c #E2E2E3",
"^ 	c #F2F3F4",
"/ 	c #EEEFF0",
"( 	c #E5E5E8",
"_ 	c #C4C5C7",
": 	c #A4A5A7",
"< 	c #595A5D",
"[ 	c #5B5D60",
"} 	c #A7A8AA",
"| 	c #C6C6C8",
"1 	c #E4E5E7",
"2 	c #EEEFF1",
"3 	c #F0F0F2",
"4 	c #E6E6E7",
"5 	c #ECEDF0",
"6 	c #E5E6E9",
"7 	c #D7D8DB",
"8 	c #ABACAE",
"9 	c #939496",
"0 	c #969698",
"a 	c #ACACAF",
"b 	c #D7D9DB",
"c 	c #EDEFF1",
"d 	c #E0E1E5",
"e 	c #BDBEC2",
"f 	c #B1B1B3",
"g 	c #595A5E",
"h 	c #5987CD",
"i 	c #5885C9",
"j 	c #5784C7",
"k 	c #5885C7",
"l 	c #5885C8",
"m 	c #5783C8",
"n 	c #5784C9",
"o 	c #5986CE",
"p 	c #AAABAD",
"q 	c #BCBDC0",
"r 	c #E0E2E6",
"s 	c #D6D7D9",
"t 	c #D6D8DB",
"u 	c #1E2533",
"v 	c #4F78BD",
"w 	c #588EBE",
"x 	c #5EA6AA",
"y 	c #63B99A",
"z 	c #64BE96",
"A 	c #64BD98",
"B 	c #65BD99",
"C 	c #66BD99",
"D 	c #66BF97",
"E 	c #63B79C",
"F 	c #5EA2AF",
"G 	c #5889C4",
"H 	c #5782C8",
"I 	c #5683C9",
"J 	c #507ABC",
"K 	c #273040",
"L 	c #949596",
"M 	c #C7C8CB",
"N 	c #4869A9",
"O 	c #569BAB",
"P 	c #5FB996",
"Q 	c #61BA96",
"R 	c #58B790",
"S 	c #30A675",
"T 	c #1A9C67",
"U 	c #1A9C66",
"V 	c #199B66",
"W 	c #189B65",
"X 	c #31A476",
"Y 	c #59B593",
"Z 	c #5994B8",
"` 	c #527DC9",
" .	c #507DC5",
"..	c #496DA5",
"+.	c #4BA98F",
"@.	c #5BB793",
"#.	c #5FBA95",
"$.	c #2CA473",
"%.	c #1B9C67",
"&.	c #179B64",
"*.	c #1B9D67",
"=.	c #2CA275",
"-.	c #58A6A3",
";.	c #4F79C9",
">.	c #4174C0",
",.	c #158E5C",
"'.	c #209766",
").	c #1F9769",
"!.	c #033AA3",
"~.	c #168E5D",
"{.	c #189C66",
"].	c #158C5B",
"^.	c #168C63",
"/.	c #033BA0",
"(.	c #DAD7DE",
"_.	c #128A59",
":.	c #168B5B",
"<.	c #11573D",
"[.	c #19A26A",
"}.	c #19A269",
"|.	c #105B3D",
"1.	c #189A65",
"2.	c #189D66",
"3.	c #138066",
"4.	c #00399B",
"5.	c #D0CFD1",
"6.	c #C2C1CC",
"7.	c #088351",
"8.	c #158959",
"9.	c #17865B",
"0.	c #136948",
"a.	c #168658",
"b.	c #158456",
"c.	c #0F2925",
"d.	c #161B2A",
"e.	c #13754D",
"f.	c #13714B",
"g.	c #178E5D",
"h.	c #189B66",
"i.	c #117569",
"j.	c #053D97",
"k.	c #CBCCD5",
"l.	c #C4C6CD",
"m.	c #C0C2CC",
"n.	c #158657",
"o.	c #179762",
"p.	c #133C33",
"q.	c #17925E",
"r.	c #177C56",
"s.	c #181F2E",
"t.	c #171E2D",
"u.	c #165544",
"v.	c #189F67",
"w.	c #145A43",
"x.	c #189863",
"y.	c #0E6473",
"z.	c #3660A3",
"A.	c #BDC0CA",
"B.	c #C8C9D1",
"C.	c #C1C3CE",
"D.	c #AEB0BB",
"E.	c #158356",
"F.	c #16915F",
"G.	c #147F54",
"H.	c #198B5F",
"I.	c #113B32",
"J.	c #188B5E",
"K.	c #17192A",
"L.	c #171E2C",
"M.	c #187654",
"N.	c #13724C",
"O.	c #0F372B",
"P.	c #189965",
"Q.	c #17945C",
"R.	c #094C87",
"S.	c #AAACB6",
"T.	c #BDBEC9",
"U.	c #ABADB9",
"V.	c #BEC0CA",
"W.	c #148355",
"X.	c #19A068",
"Y.	c #18A168",
"Z.	c #164E3F",
"`.	c #148857",
" +	c #173737",
".+	c #17252F",
"++	c #16935F",
"@+	c #168F5D",
"#+	c #185D4A",
"$+	c #116A45",
"%+	c #158956",
"&+	c #033698",
"*+	c #C0C2CE",
"=+	c #ACAEBA",
"-+	c #A9A9B1",
";+	c #BABCC8",
">+	c #C9C8CE",
",+	c #148255",
"'+	c #148054",
")+	c #091012",
"!+	c #0A040E",
"~+	c #0A1617",
"{+	c #124A38",
"]+	c #151927",
"^+	c #171D2B",
"/+	c #10101D",
"(+	c #10151F",
"_+	c #0F4532",
":+	c #189A64",
"<+	c #106E61",
"[+	c #003593",
"}+	c #BBBCC0",
"|+	c #B7B9C5",
"1+	c #A6A7B0",
"2+	c #797A80",
"3+	c #B1B3BE",
"4+	c #147E53",
"5+	c #189C65",
"6+	c #153232",
"7+	c #171F2D",
"8+	c #161C2B",
"9+	c #17222E",
"0+	c #18202E",
"a+	c #178C5D",
"b+	c #168D5B",
"c+	c #0C5674",
"d+	c #B6B8C3",
"e+	c #88898C",
"f+	c #B5B6BF",
"g+	c #137E52",
"h+	c #137C51",
"i+	c #189E67",
"j+	c #163033",
"k+	c #17202D",
"l+	c #12543E",
"m+	c #15834F",
"n+	c #04398F",
"o+	c #BFC1CC",
"p+	c #A9AAB3",
"q+	c #909196",
"r+	c #BFC1CB",
"s+	c #CFCFD7",
"t+	c #137B50",
"u+	c #189561",
"v+	c #16915E",
"w+	c #151A29",
"x+	c #18604B",
"y+	c #17212E",
"z+	c #151828",
"A+	c #179460",
"B+	c #0E6363",
"C+	c #C7C9CF",
"D+	c #BDBFC9",
"E+	c #A6A7AC",
"F+	c #B5B7C0",
"G+	c #C9CBD4",
"H+	c #13794F",
"I+	c #13784F",
"J+	c #155A44",
"K+	c #17202E",
"L+	c #0F352C",
"M+	c #19A168",
"N+	c #147F4E",
"O+	c #08467D",
"P+	c #CACCD5",
"Q+	c #BBBDC5",
"R+	c #B0B1B6",
"S+	c #CDCFD7",
"T+	c #CECED3",
"U+	c #13774E",
"V+	c #179560",
"W+	c #17242F",
"X+	c #16272F",
"Y+	c #172530",
"Z+	c #161126",
"`+	c #158A5A",
" @	c #0F675B",
".@	c #CACBD0",
"+@	c #CACBD4",
"@@	c #AFB1B5",
"#@	c #C6C7CE",
"$@	c #D5D7DD",
"%@	c #12754D",
"&@	c #12744B",
"*@	c #18694E",
"=@	c #171C2B",
"-@	c #134939",
";@	c #18192B",
">@	c #171F2C",
",@	c #18885C",
"'@	c #187153",
")@	c #137A4B",
"!@	c #084278",
"~@	c #D8D9DF",
"{@	c #CACBD2",
"]@	c #838486",
"^@	c #C8C9CD",
"/@	c #D8DAE0",
"(@	c #12734B",
"_@	c #138254",
":@	c #173939",
"<@	c #155943",
"[@	c #102023",
"}@	c #147C51",
"|@	c #0D5B60",
"1@	c #DADBE1",
"2@	c #8C8D90",
"3@	c #DCDDE2",
"4@	c #E2E4E7",
"5@	c #187950",
"6@	c #12704A",
"7@	c #168C5B",
"8@	c #184F42",
"9@	c #189563",
"0@	c #175343",
"a@	c #189262",
"b@	c #15895A",
"c@	c #137446",
"d@	c #003177",
"e@	c #EBEAE9",
"f@	c #E1E3E6",
"g@	c #D9DADF",
"h@	c #A5A6A9",
"i@	c #AEAEB1",
"j@	c #CBCCCF",
"k@	c #E2E3E7",
"l@	c #EEE6EC",
"m@	c #0D6F46",
"n@	c #116C47",
"o@	c #179662",
"p@	c #18A369",
"q@	c #131D26",
"r@	c #157F55",
"s@	c #189562",
"t@	c #127048",
"u@	c #00406D",
"v@	c #E3E3E6",
"w@	c #CBCCD0",
"x@	c #B4B5B8",
"y@	c #606265",
"z@	c #919194",
"A@	c #D2D3D5",
"B@	c #0D6D45",
"C@	c #116E47",
"D@	c #168859",
"E@	c #17192B",
"F@	c #171C2C",
"G@	c #177E56",
"H@	c #0B585B",
"I@	c #CBCDD9",
"J@	c #606064",
"K@	c #A9AAAC",
"L@	c #106D46",
"M@	c #116E48",
"N@	c #177E57",
"O@	c #171D2C",
"P@	c #187855",
"Q@	c #116945",
"R@	c #0F654D",
"S@	c #A0A0A2",
"T@	c #106A45",
"U@	c #106B46",
"V@	c #188A5D",
"W@	c #172832",
"X@	c #18895C",
"Y@	c #106744",
"Z@	c #0F6748",
"`@	c #106945",
" #	c #106743",
".#	c #0F6341",
"+#	c #0F6647",
"@#	c #106642",
"##	c #106545",
"$#	c #106443",
"                              .                                 ",
"                        + @ # $ % & *                           ",
"                    = - ; > , ' ) ! ~ { =                       ",
"              ] ^ / ( _ : <       [ } | 1 2 3                   ",
"          4 5 6 7 8 9                   0 a b 6 c $             ",
"          d e f g     h i j k k l m n o     [ p q r s           ",
"        t 9 u v w x y z A B C C C D E F G H I J K L M           ",
"        N O P Q R S T U V W W W W W V U U X Y Z `  ...          ",
"      +.@.#.$.%.&.W W W W W W W W W W W W W &.*.=.-.;.>.        ",
"      ,.'.&.W W W W W W W W W W W W W W W W W W W W ).!.        ",
"      ~.~.W W W W W {.].W W W W W W W W W W W W W W ^./.        ",
"    (._.:.W W W W W {.<.[.W W }.|.{.W W 1.2.W W W {.3.4.5.      ",
"    6.7.8.W W W W W W 9.0.a.b.c.d.e.W W f.g.W W W h.i.j.k.      ",
"  l.m.  n.{.W W W W W o.p.q.r.s.t.u.v.}.w.2.W W W x.y.z.A.B.    ",
"  C.D.  E.F.W W W W v.G.H.I.J.K.L.M.N.O.P.W W W W Q.R.  S.T.    ",
"  U.V.  W.W.W W W {.X.{.Y.Z.`. +.+++@+#+$+1.W W {.%+&+  *+=+    ",
"  -+;+>+,+'+W W W N.)+!+~+{+]+^+L./+(+_+W W W W :+<+[+}+|+1+    ",
"  2+3+m.  4+~.W 5+6+7+7+7+8+9+7+7+7+7+0+a+W W W b+c+  B.d+e+    ",
"    f+m.  g+h+W i+j+7+7+7+7+7+7+7+7+k+7+l+{.W 2.m+n+  o+p+      ",
"    q+r+s+  t+u+v+w+7+7+7+7+7+7+7+7+x+y+z+A+W @+B+  C+D+E+      ",
"      F+G+  H+I+J+t.7+7+7+7+K+7+7+7+v.J.t.L+M+N+O+  P+Q+        ",
"      R+S+T+  U+V+W+7+7+7+W+X+7+7+9+5+5+Y+Z+`+ @  .@+@@@        ",
"        #@$@  %@&@*@=@7+t.-@;@7+7+>@W W ,@'@)@!@  ~@{@]@        ",
"        ^@/@    (@_@:@k+t.<@7+7+7+y+[@W {.}@|@    1@}+          ",
"        2@3@4@( 5@6@7@8@9@0@7+7+7+k+a@1.b@c@d@e@f@g@h@          ",
"          i@j@k@l@m@n@o@p@q@7+7+7+t.r@s@t@u@v@f@w@x@            ",
"            y@z@A@  B@C@D@E@7+7+7+F@G@n@H@I@A@9 J@              ",
"                  K@  L@M@N@O@7+O@P@Q@R@  S@                    ",
"                        T@U@V@W@X@Y@Z@                          ",
"                          `@ #A+.#+#                            ",
"                             #@###                              ",
"                              $#                                "};
